<svg width="108" height="104" viewBox="0 0 108 104" fill="none" xmlns="http://www.w3.org/2000/svg">
<rect width="104" height="104" fill="white"/>
<path d="M104 52C104 62.2846 100.95 72.3383 95.2364 80.8896C89.5226 89.441 81.4013 96.106 71.8995 100.042C62.3978 103.977 51.9423 105.007 41.8553 103.001C31.7683 100.994 22.5028 96.0419 15.2304 88.7696C7.95812 81.4972 3.0056 72.2317 0.999165 62.1447C-1.00727 52.0577 0.0225077 41.6022 3.95826 32.1005C7.89402 22.5987 14.559 14.4774 23.1103 8.76358C31.6617 3.04975 41.7154 -1.22643e-07 52 0V52H104Z" fill="#9AB493"/>
<g filter="url(#filter0_d_9_17)">
<rect x="52" width="52" height="52" fill="#2C9837"/>
</g>
<path d="M28.2983 19.5455H31.9886V30.8807C31.9886 32.1534 31.6847 33.267 31.0767 34.2216C30.4744 35.1761 29.6307 35.9205 28.5455 36.4545C27.4602 36.983 26.196 37.2472 24.7528 37.2472C23.304 37.2472 22.0369 36.983 20.9517 36.4545C19.8665 35.9205 19.0227 35.1761 18.4205 34.2216C17.8182 33.267 17.517 32.1534 17.517 30.8807V19.5455H21.2074V30.5653C21.2074 31.2301 21.3523 31.821 21.642 32.3381C21.9375 32.8551 22.3523 33.2614 22.8864 33.5568C23.4205 33.8523 24.0426 34 24.7528 34C25.4688 34 26.0909 33.8523 26.6193 33.5568C27.1534 33.2614 27.5653 32.8551 27.8551 32.3381C28.1506 31.821 28.2983 31.2301 28.2983 30.5653V19.5455Z" fill="black"/>
<path d="M17.446 86L12.4517 68.5455H16.483L19.3722 80.6733H19.517L22.7045 68.5455H26.1562L29.3352 80.6989H29.4886L32.3778 68.5455H36.4091L31.4148 86H27.8182L24.4943 74.5881H24.358L21.0426 86H17.446Z" fill="black"/>
<path d="M86.9176 74.6562H83.1847C83.1165 74.1733 82.9773 73.7443 82.767 73.3693C82.5568 72.9886 82.2869 72.6648 81.9574 72.3977C81.6278 72.1307 81.2472 71.9261 80.8153 71.7841C80.3892 71.642 79.9261 71.571 79.4261 71.571C78.5227 71.571 77.7358 71.7955 77.0653 72.2443C76.3949 72.6875 75.875 73.3352 75.5057 74.1875C75.1364 75.0341 74.9517 76.0625 74.9517 77.2727C74.9517 78.517 75.1364 79.5625 75.5057 80.4091C75.8807 81.2557 76.4034 81.8949 77.0739 82.3267C77.7443 82.7585 78.5199 82.9744 79.4006 82.9744C79.8949 82.9744 80.3523 82.9091 80.7727 82.7784C81.1989 82.6477 81.5767 82.4574 81.9062 82.2074C82.2358 81.9517 82.5085 81.642 82.7244 81.2784C82.946 80.9148 83.0994 80.5 83.1847 80.0341L86.9176 80.0511C86.821 80.8523 86.5795 81.625 86.1932 82.3693C85.8125 83.108 85.2983 83.7699 84.6506 84.3551C84.0085 84.9347 83.2415 85.3949 82.3494 85.7358C81.4631 86.071 80.4602 86.2386 79.3409 86.2386C77.7841 86.2386 76.392 85.8864 75.1648 85.1818C73.9432 84.4773 72.9773 83.4574 72.267 82.1222C71.5625 80.7869 71.2102 79.1705 71.2102 77.2727C71.2102 75.3693 71.5682 73.75 72.2841 72.4148C73 71.0795 73.9716 70.0625 75.1989 69.3636C76.4261 68.6591 77.8068 68.3068 79.3409 68.3068C80.3523 68.3068 81.2898 68.4489 82.1534 68.733C83.0227 69.017 83.7926 69.4318 84.4631 69.9773C85.1335 70.517 85.679 71.179 86.0994 71.9631C86.5256 72.7472 86.7983 73.6449 86.9176 74.6562Z" fill="black"/>
<path d="M65.8551 32V30.8494L70.1761 26.1193C70.6832 25.5653 71.1009 25.0838 71.429 24.6747C71.7571 24.2614 72 23.8736 72.1577 23.5114C72.3196 23.1449 72.4006 22.7614 72.4006 22.3608C72.4006 21.9006 72.2898 21.5021 72.0682 21.1655C71.8509 20.8288 71.5526 20.5689 71.1733 20.3857C70.794 20.2024 70.3679 20.1108 69.8949 20.1108C69.392 20.1108 68.9531 20.2152 68.5781 20.424C68.2074 20.6286 67.9197 20.9162 67.7152 21.2869C67.5149 21.6577 67.4148 22.0923 67.4148 22.5909H65.9062C65.9062 21.8239 66.0831 21.1506 66.4368 20.571C66.7905 19.9915 67.272 19.5398 67.8814 19.2159C68.495 18.892 69.1832 18.7301 69.946 18.7301C70.7131 18.7301 71.3928 18.892 71.9851 19.2159C72.5774 19.5398 73.0419 19.9766 73.3786 20.5263C73.7152 21.076 73.8835 21.6875 73.8835 22.3608C73.8835 22.8423 73.7962 23.3132 73.6214 23.7734C73.451 24.2294 73.1527 24.7386 72.7266 25.3011C72.3047 25.8594 71.7188 26.5412 70.9688 27.3466L68.0284 30.4915V30.5938H74.1136V32H65.8551ZM77.8786 32.1023C77.5632 32.1023 77.2926 31.9893 77.0668 31.7635C76.8409 31.5376 76.728 31.267 76.728 30.9517C76.728 30.6364 76.8409 30.3658 77.0668 30.1399C77.2926 29.9141 77.5632 29.8011 77.8786 29.8011C78.1939 29.8011 78.4645 29.9141 78.6903 30.1399C78.9162 30.3658 79.0291 30.6364 79.0291 30.9517C79.0291 31.1605 78.9759 31.3523 78.8693 31.527C78.767 31.7017 78.6286 31.8423 78.4538 31.9489C78.2834 32.0511 78.0916 32.1023 77.8786 32.1023ZM85.5234 32.179C84.5604 32.179 83.7401 31.9169 83.0625 31.3928C82.3849 30.8643 81.8672 30.0994 81.5092 29.098C81.1513 28.0923 80.9723 26.8778 80.9723 25.4545C80.9723 24.0398 81.1513 22.8317 81.5092 21.8303C81.8714 20.8246 82.3913 20.0575 83.0689 19.5291C83.7507 18.9964 84.5689 18.7301 85.5234 18.7301C86.478 18.7301 87.294 18.9964 87.9716 19.5291C88.6534 20.0575 89.1733 20.8246 89.5312 21.8303C89.8935 22.8317 90.0746 24.0398 90.0746 25.4545C90.0746 26.8778 89.8956 28.0923 89.5376 29.098C89.1797 30.0994 88.6619 30.8643 87.9844 31.3928C87.3068 31.9169 86.4865 32.179 85.5234 32.179ZM85.5234 30.7727C86.478 30.7727 87.2195 30.3125 87.7479 29.392C88.2763 28.4716 88.5405 27.1591 88.5405 25.4545C88.5405 24.321 88.419 23.3558 88.1761 22.5589C87.9375 21.7621 87.5923 21.1548 87.1406 20.7372C86.6932 20.3196 86.1541 20.1108 85.5234 20.1108C84.5774 20.1108 83.8381 20.5774 83.3054 21.5107C82.7727 22.4396 82.5064 23.7543 82.5064 25.4545C82.5064 26.5881 82.6257 27.5511 82.8643 28.3438C83.103 29.1364 83.446 29.7393 83.8935 30.1527C84.3452 30.5661 84.8885 30.7727 85.5234 30.7727Z" fill="black"/>
<defs>
<filter id="filter0_d_9_17" x="48" y="0" width="60" height="60" filterUnits="userSpaceOnUse" color-interpolation-filters="sRGB">
<feFlood flood-opacity="0" result="BackgroundImageFix"/>
<feColorMatrix in="SourceAlpha" type="matrix" values="0 0 0 0 0 0 0 0 0 0 0 0 0 0 0 0 0 0 127 0" result="hardAlpha"/>
<feOffset dy="4"/>
<feGaussianBlur stdDeviation="2"/>
<feComposite in2="hardAlpha" operator="out"/>
<feColorMatrix type="matrix" values="0 0 0 0 0 0 0 0 0 0 0 0 0 0 0 0 0 0 0.25 0"/>
<feBlend mode="normal" in2="BackgroundImageFix" result="effect1_dropShadow_9_17"/>
<feBlend mode="normal" in="SourceGraphic" in2="effect1_dropShadow_9_17" result="shape"/>
</filter>
</defs>
</svg>
